#!OML:ASF H:\Martial Arts Walks\Project 1\Capture day 1\Session 1\male.ASF
:FULLY-SPECIFIED
:DEGREES
1151
root -4.09768 16.9717 28.5385 -85.543 -55.4947 118.747
lowerback 2.36435 5.86032 0.806816
upperback -0.147846 7.74502 -7.17192
thorax -0.358908 3.88736 -8.07802
lowerneck -5.6148 10.1834 4.85691
upperneck 13.5505 14.7496 -10.3655
head 6.17105 6.76531 -2.89493
rclavicle -3.33958e-014 5.725e-014
rhumerus -4.46422 49.723 -54.1917
rradius 90.8395
rwrist 11.114
rhand -11.1471 -32.6188
rfingers 7.12502
rthumb 14.8787 -62.0645
lclavicle -3.33958e-014 5.725e-014
lhumerus -40.884 23.5104 48.1817
lradius 83.7964
lwrist 33.0335
lhand -33.362 12.3647
lfingers 7.12502
lthumb -6.56368 42.243
rfemur -65.434 -22.3702 -2.38419
rtibia 45.4201
rfoot -9.43789 -11.432
rtoes 6.15112
lfemur -155.837 47.5756 -60.961
ltibia 133.741
lfoot -16.1572 -5.26148
ltoes -10.4248
1152
root -4.0756 17.2086 28.3468 -94.1698 -54.3407 116.864
lowerback 14.594 5.29038 -0.99206
upperback 2.16085 6.28026 -6.42203
thorax -5.21502 3.00868 -7.45977
lowerneck -5.36335 10.3177 4.76694
upperneck 13.4533 14.8798 -10.0244
head 6.07389 6.85944 -2.77975
rclavicle -2.8625e-014 7.31528e-014
rhumerus -5.92694 50.0922 -55.5041
rradius 91.3064
rwrist 10.7115
rhand -10.9703 -32.663
rfingers 7.12502
rthumb 15.0491 -62.096
lclavicle -2.8625e-014 7.31528e-014
lhumerus -40.716 22.848 48.3286
lradius 85.1669
lwrist 33.8322
lhand -33.1472 12.3882
lfingers 7.12502
lthumb -6.35628 42.2728
rfemur -53.5063 -20.2795 -6.03015
rtibia 45.3557
rfoot -11.4053 -11.1213
rtoes 4.79962
lfemur -131.047 53.3238 -48.0918
ltibia 129.586
lfoot -19.7878 -5.47859
ltoes -11.6526
1153
root -4.07187 17.3791 28.2358 -108.892 -54.2762 119.498
lowerback 29.5315 5.82032 -0.8698
upperback 4.27974 6.03394 -5.77044
thorax -10.2329 2.60857 -7.79242
lowerneck -5.31058 10.4909 5.34909
upperneck 13.4709 15.0999 -10.2888
head 6.15309 6.97765 -2.92687
rclavicle 8.11041e-014 -5.40694e-014
rhumerus -7.16626 50.4362 -56.599
rradius 91.8765
rwrist 10.2468
rhand -11.0375 -32.6359
rfingers 7.12502
rthumb 14.9844 -62.0737
lclavicle 8.11041e-014 -5.40694e-014
lhumerus -40.2987 22.3414 48.4399
lradius 86.5236
lwrist 34.6349
lhand -33.2626 12.3715
lfingers 7.12502
lthumb -6.4677 42.2527
rfemur -40.7426 -15.1736 -7.63658
rtibia 45.0594
rfoot -13.4783 -9.63873
rtoes 3.71748
lfemur -100.393 60.3251 -27.5845
ltibia 125.462
lfoot -23.7181 -7.31155
ltoes -12.1647
1154
root -4.08949 17.2844 28.3433 -111.4 -54.3737 122.014
lowerback 29.3083 5.8744 -0.701123
upperback 4.58038 6.17058 -5.48723
thorax -10.3545 2.60905 -8.14318
lowerneck -5.1367 10.6732 5.40352
upperneck 13.3774 15.2883 -9.9846
head 6.08887 7.10129 -2.83441
rclavicle -1.11319e-014 -1.27222e-014
rhumerus -8.49878 50.9051 -57.4442
rradius 92.6887
rwrist 9.72247
rhand -11.8315 -33.5982
rfingers 7.12502
rthumb 14.2193 -63.0915
lclavicle -1.11319e-014 -1.27222e-014
lhumerus -39.8105 21.6901 48.5803
lradius 87.7813
lwrist 35.2191
lhand -33.2869 12.5859
lfingers 7.12502
lthumb -6.49121 42.4664
rfemur -41.6832 -15.7259 -6.55745
rtibia 45.4552
rfoot -13.5512 -7.83365
rtoes 3.50479
lfemur -97.3571 59.2198 -26.0919
ltibia 123.54
lfoot -22.9309 -7.41663
ltoes -12.8878
1155
root -4.11353 17.1952 28.4498 -113.969 -54.3469 124.29
lowerback 29.5501 5.93623 -0.60847
upperback 4.27407 6.25082 -5.72578
thorax -10.2029 2.69523 -7.9596
lowerneck -4.9103 10.809 5.45285
upperneck 13.3315 15.4221 -9.70808
head 6.0278 7.19538 -2.75813
rclavicle 1.59028e-015 -3.81667e-014
rhumerus -9.97428 51.0104 -58.7669
rradius 93.1467
rwrist 9.49049
rhand -11.8929 -33.3092
rfingers 7.12502
rthumb 14.1602 -62.8066
lclavicle 1.59028e-015 -3.81667e-014
lhumerus -39.3255 21.1078 48.833
lradius 89.0187
lwrist 35.5243
lhand -33.2508 12.8204
lfingers 7.12502
lthumb -6.45636 42.702
rfemur -42.3656 -15.9062 -5.83078
rtibia 46.2685
rfoot -13.9306 -6.34702
rtoes 3.54238
lfemur -93.4302 57.9595 -24.1881
ltibia 121.467
lfoot -22.3425 -7.38126
ltoes -13.5295
1156
root -4.13897 17.0992 28.5565 -116.005 -54.2137 126.184
lowerback 29.5093 6.07963 -0.495371
upperback 4.2609 6.45427 -5.82083
thorax -10.1565 2.78565 -8.18977
lowerneck -4.93285 10.8167 5.80148
upperneck 13.5156 15.374 -9.47724
head 6.09376 7.19541 -2.73863
rclavicle -6.20208e-014 6.36111e-015
rhumerus -12.037 50.9521 -60.4419
rradius 93.6933
rwrist 9.56244
rhand -12.074 -33.3761
rfingers 7.12502
rthumb 13.9857 -62.8856
lclavicle -6.20208e-014 6.36111e-015
lhumerus -38.341 20.1109 49.3709
lradius 90.1281
lwrist 35.6223
lhand -33.1884 13.06
lfingers 7.12502
lthumb -6.39606 42.9434
rfemur -43.4765 -16.2644 -5.25353
rtibia 47.7836
rfoot -14.4542 -5.88456
rtoes 1.93119
lfemur -89.9119 56.319 -22.8296
ltibia 119.361
lfoot -21.7926 -7.04903
ltoes -13.6306
1157
root -4.16637 17.0041 28.6597 -118.028 -54.1674 127.87
lowerback 29.6587 6.20817 -0.281818
upperback 4.2772 6.6587 -5.90858
thorax -10.149 2.87048 -8.48037
lowerneck -4.97938 10.7862 6.40079
upperneck 13.7029 15.2867 -9.49464
head 6.20138 7.17185 -2.83378
rclavicle -9.54166e-014 9.54166e-015
rhumerus -14.092 50.5422 -61.9583
rradius 94.3073
rwrist 9.7591
rhand -12.0524 -33.0682
rfingers 7.12502
rthumb 14.0065 -62.5763
lclavicle -9.54166e-014 9.54166e-015
lhumerus -37.1377 19.0005 49.9756
lradius 91.0988
lwrist 35.6093
lhand -32.9501 13.017
lfingers 7.12502
lthumb -6.16599 42.9073
rfemur -44.2435 -16.5424 -4.73401
rtibia 49.2754
rfoot -15.1662 -5.18906
rtoes 0.952239
lfemur -86.1698 54.5256 -21.2224
ltibia 117.093
lfoot -21.4227 -6.73563
ltoes -13.9375
1158
root -4.19791 16.9068 28.766 -119.813 -54.318 129.402
lowerback 29.647 6.17788 0.125481
upperback 4.28511 6.74175 -5.94088
thorax -10.082 2.89849 -8.7606
lowerneck -4.97024 10.8034 6.6793
upperneck 13.7687 15.2505 -9.28021
head 6.22185 7.17918 -2.81182
rclavicle -3.49861e-014 1.27222e-014
rhumerus -15.9538 50.0886 -63.3862
rradius 94.832
rwrist 10.1254
rhand -12.0054 -32.9134
rfingers 7.12502
rthumb 14.0518 -62.4183
lclavicle -3.49861e-014 1.27222e-014
lhumerus -36.0932 17.9074 50.5845
lradius 92.107
lwrist 35.3733
lhand -33.1109 13.3337
lfingers 7.12502
lthumb -6.32129 43.2193
rfemur -45.0278 -16.853 -4.12873
rtibia 50.7602
rfoot -15.8933 -4.14065
rtoes 1.01559
lfemur -82.9122 52.5391 -19.8258
ltibia 114.747
lfoot -21.0741 -6.27968
ltoes -14.1564
